<svg width="179" height="62" viewBox="0 0 179 62" fill="none" xmlns="http://www.w3.org/2000/svg">
<path d="M40.4219 59.5854C40.3739 59.5854 40.1592 59.5854 39.7828 59.5854L39.2903 59.6055V59.4801C39.5757 59.4801 39.7727 59.4049 39.8763 59.2519C39.9597 59.1266 40.0026 58.916 40.0026 58.6176V56.0876C40.0026 55.7742 39.9041 55.5235 39.7045 55.3329C39.505 55.1423 39.2499 55.0471 38.9367 55.0471C38.4012 55.0471 37.9137 55.2727 37.4742 55.7241V58.6176C37.4742 58.8533 37.5045 59.0438 37.5676 59.1893C37.651 59.3899 37.8126 59.4902 38.0501 59.4902H38.2067V59.6055L37.0751 59.5854C37.0195 59.5854 36.8048 59.5854 36.436 59.5854L35.9435 59.6055L35.9334 59.4801C36.2037 59.4801 36.3855 59.43 36.4815 59.3297C36.575 59.2294 36.6305 59.0463 36.6457 58.7831V58.6176V56.035C36.6457 55.6187 36.5295 55.4106 36.2946 55.4106C36.191 55.4106 36.0572 55.4307 35.8904 55.4733V55.348C36.5345 55.0922 37.0625 54.8565 37.4742 54.6409V55.6087C37.992 54.9919 38.6058 54.6835 39.3206 54.6835C39.7753 54.6835 40.139 54.8089 40.4168 55.0571C40.6922 55.3053 40.8311 55.6513 40.8311 56.0952V58.6101C40.8311 58.8934 40.8564 59.0865 40.9043 59.1918C40.9877 59.3648 41.1519 59.4601 41.3969 59.4726L41.5535 59.4826V59.608C41.455 59.608 41.2428 59.6005 40.9144 59.5879H40.4219V59.5854Z" fill="black"/>
<path d="M47.5197 56.8799C47.2898 56.9351 47.0574 57.0078 46.8276 57.0981C46.3451 57.2911 46.0319 57.4441 45.8829 57.5569C45.5671 57.7851 45.4105 58.0885 45.4105 58.4621C45.4105 59.114 45.701 59.44 46.282 59.44C46.6735 59.44 47.0852 59.2168 47.5197 58.773V56.8799ZM47.752 59.7935C47.6611 59.6606 47.5879 59.4751 47.5323 59.2318C47.5171 59.1767 47.4969 59.0789 47.4691 58.941C46.9311 59.4751 46.3679 59.7433 45.7819 59.7433C45.216 59.7433 44.8346 59.4976 44.6401 59.0037C44.5694 58.8307 44.5341 58.6627 44.5341 58.5022C44.5341 58.1612 44.7412 57.8678 45.1529 57.6146C45.3777 57.4817 45.7465 57.3338 46.2643 57.1658L47.5222 56.7696V55.9447C47.5222 55.6262 47.4565 55.3655 47.3226 55.1624C47.1686 54.9267 46.9387 54.8088 46.6306 54.8088C46.4057 54.8088 46.1961 54.8715 46.0016 54.9969C45.7768 55.1348 45.6657 55.3153 45.6657 55.5309C45.6657 55.6638 45.696 55.8318 45.7591 56.0349L45.0039 56.2756C44.9837 56.2205 44.966 56.1327 44.9508 56.0149C44.9508 55.6337 45.216 55.3028 45.7465 55.027C46.2087 54.7837 46.6583 54.6634 47.1004 54.6634C47.4641 54.6634 47.7546 54.7712 47.9769 54.9868C48.1966 55.2025 48.3077 55.4908 48.3077 55.8519V58.5674C48.3077 58.956 48.4517 59.1491 48.7371 59.1491C48.8205 59.1491 48.9392 59.114 49.0933 59.0463L49.1236 59.129L47.752 59.7935Z" fill="black"/>
<path d="M54.5366 59.5553L54.4002 59.7333L54.2108 59.7434C54.0087 59.7584 53.794 59.7158 53.5717 59.618C52.9074 59.3422 52.5765 58.8608 52.5765 58.1788V55.0069H51.5813V54.8414H52.0536C52.3062 54.8339 52.5613 54.6734 52.819 54.36C53.0488 54.0667 53.1852 53.7833 53.2282 53.5125L53.2812 53.1665H53.3974V54.8414H55.0115L54.9584 55.0069H53.3949V58.2239C53.3949 58.3693 53.405 58.4771 53.4252 58.5473C53.4606 58.7705 53.5641 58.956 53.7334 59.104C53.9051 59.2544 54.1021 59.3271 54.327 59.3271C54.481 59.3271 54.62 59.292 54.7463 59.2218C54.7942 59.1942 54.918 59.1115 55.1125 58.9711C54.8624 59.1867 54.6705 59.3798 54.5366 59.5553Z" fill="black"/>
<path d="M61.993 59.7835C61.8314 59.6105 61.7531 59.3397 61.7531 58.9711L61.5333 59.1266C61.3312 59.272 61.0761 59.4325 60.768 59.6055C60.5305 59.7033 60.2502 59.7509 59.9294 59.7509C59.4671 59.7509 59.0983 59.618 58.823 59.3497C58.5477 59.0814 58.4088 58.7204 58.4088 58.2615V56.035C58.4088 55.6187 58.2875 55.4106 58.0425 55.4106C57.944 55.4106 57.8127 55.4307 57.6434 55.4733V55.348C58.1461 55.1599 58.674 54.9242 59.2272 54.6409V58.2741C59.2272 58.6426 59.3206 58.936 59.5101 59.1592C59.6995 59.3823 59.9748 59.4927 60.3386 59.4927C60.8917 59.4927 61.3565 59.257 61.7329 58.7856V55.9221C61.7329 55.5811 61.6116 55.4131 61.3666 55.4131C61.2681 55.4131 61.1367 55.4332 60.9675 55.4758V55.348L61.7657 55.032C61.9905 54.9392 62.2507 54.8089 62.5512 54.6409V58.3042C62.5512 58.8683 62.6952 59.1491 62.9806 59.1491C63.0792 59.1491 63.1979 59.114 63.3368 59.0463L63.357 59.1191L61.993 59.7835Z" fill="black"/>
<path d="M69.0756 55.2025C68.8129 55.2025 68.5578 55.3078 68.3103 55.5209C68.0627 55.7315 67.939 55.9697 67.939 56.233V58.7454C67.939 59.2293 68.1789 59.4725 68.6614 59.4725V59.6079C68.5704 59.6079 68.3583 59.6004 68.0223 59.5879H67.5197C67.4717 59.5879 67.257 59.5879 66.8806 59.5879L66.3881 59.6079V59.4725C66.8705 59.4725 67.1105 59.1817 67.1105 58.5975V56.0374C67.1105 55.6212 66.9943 55.4131 66.7594 55.4131C66.6558 55.4131 66.5219 55.4331 66.3552 55.4758L66.335 55.3404C66.9185 55.1323 67.454 54.8991 67.939 54.6433V56.0174L68.1158 55.6312C68.4997 54.9994 68.9367 54.6834 69.4292 54.6834C69.5909 54.6834 69.7374 54.7085 69.8788 54.7561V55.734C69.7273 55.3805 69.457 55.2025 69.0756 55.2025Z" fill="black"/>
<path d="M76.2037 56.7346C76.2037 56.2431 76.1102 55.8194 75.9208 55.4658C75.6834 55.0295 75.3373 54.8089 74.8826 54.8089C74.5063 54.8089 74.1729 55.017 73.8874 55.4332C73.6298 55.7943 73.4858 56.1754 73.458 56.5791L73.4378 56.87H76.2062V56.7346H76.2037ZM77.0726 57.0455H73.4353V57.1909L73.4454 57.3062C73.501 57.9506 73.6904 58.4822 74.0112 58.8984C74.3825 59.3849 74.8751 59.6281 75.4889 59.6281C75.888 59.6281 76.3426 59.4801 76.8528 59.1818L76.8958 59.2745C76.4007 59.593 75.845 59.7534 75.2287 59.7534C74.4381 59.7534 73.7965 59.5127 73.2989 59.0288C72.8038 58.5474 72.5538 57.913 72.5538 57.1282C72.5538 56.559 72.7003 56.0626 72.9933 55.6388C73.309 55.18 73.7334 54.8941 74.2714 54.7738C74.524 54.7186 74.7715 54.691 75.0165 54.691C75.6808 54.691 76.1936 54.9067 76.5573 55.3354C76.9008 55.7391 77.0701 56.2757 77.0701 56.9477V57.0455H77.0726Z" fill="black"/>
<path d="M85.9334 59.5553L85.797 59.7333L85.6076 59.7434C85.4055 59.7584 85.1908 59.7158 84.9686 59.618C84.3042 59.3422 83.9734 58.8608 83.9734 58.1788V55.0069H82.9781V54.8414H83.4505C83.7031 54.8339 83.9582 54.6734 84.2158 54.36C84.4457 54.0667 84.5821 53.7833 84.625 53.5125L84.6781 53.1665H84.7943V54.8414H86.4083L86.3553 55.0069H84.7917V58.2239C84.7917 58.3693 84.8018 58.4771 84.822 58.5473C84.8574 58.7705 84.961 58.956 85.1302 59.104C85.302 59.2544 85.499 59.3271 85.7238 59.3271C85.8779 59.3271 86.0168 59.292 86.1431 59.2218C86.1911 59.1942 86.3148 59.1115 86.5093 58.9711C86.2593 59.1867 86.0673 59.3798 85.9334 59.5553Z" fill="black"/>
<path d="M91.45 54.8189C90.9473 54.8189 90.5407 55.027 90.2325 55.4407C89.9521 55.8143 89.8132 56.2606 89.8132 56.7822C89.8132 57.4542 89.9673 58.0634 90.2754 58.6101C90.6518 59.2745 91.157 59.608 91.7859 59.608C92.3391 59.608 92.7508 59.3623 93.0236 58.8708C93.2408 58.4822 93.3495 57.9907 93.3495 57.3965C93.3495 56.4963 93.0767 55.7893 92.5311 55.2777C92.2103 54.9718 91.8491 54.8189 91.45 54.8189ZM91.599 59.7509C90.8513 59.7509 90.2325 59.5127 89.7425 59.0388C89.2525 58.5624 89.0074 57.9556 89.0074 57.2109C89.0074 56.4412 89.2525 55.8294 89.7425 55.378C90.2325 54.9267 90.869 54.701 91.6521 54.701C92.3871 54.701 92.9958 54.9242 93.4808 55.368C93.9658 55.8118 94.2108 56.3985 94.2108 57.1282C94.2108 57.8854 93.9658 58.5098 93.4757 59.0062C92.9857 59.5027 92.3593 59.7509 91.599 59.7509Z" fill="black"/>
<path d="M103.223 54.9443C102.764 54.9443 102.321 55.1624 101.897 55.6012V59.2645C102.177 59.4876 102.529 59.598 102.955 59.598C103.584 59.598 104.069 59.3146 104.413 58.7455C104.706 58.2665 104.852 57.6974 104.852 57.0379C104.852 56.4688 104.726 55.9949 104.476 55.6112C104.183 55.1649 103.766 54.9443 103.223 54.9443ZM103.13 59.7208C102.741 59.7208 102.327 59.6205 101.897 59.4199V61.0297C101.897 61.3356 101.94 61.5487 102.023 61.6666C102.122 61.827 102.316 61.9073 102.609 61.9073V62L101.478 61.9574C101.422 61.9574 101.208 61.9649 100.839 61.9775L100.346 61.9975V61.8947C100.627 61.8947 100.819 61.822 100.922 61.6766C100.998 61.5663 101.043 61.3607 101.059 61.0623V60.8341V56.035C101.059 55.6187 100.945 55.4106 100.715 55.4106C100.657 55.4106 100.526 55.4282 100.323 55.4633V55.348C100.824 55.1599 101.346 54.9242 101.897 54.6409V55.4833C102.329 54.9493 102.87 54.681 103.524 54.681C104.206 54.681 104.736 54.9016 105.12 55.3429C105.504 55.7842 105.694 56.3484 105.694 57.0354C105.694 57.7926 105.456 58.4245 104.981 58.931C104.499 59.4576 103.882 59.7208 103.13 59.7208Z" fill="black"/>
<path d="M112.498 56.7346C112.498 56.2431 112.405 55.8194 112.215 55.4658C111.978 55.0295 111.632 54.8089 111.177 54.8089C110.801 54.8089 110.467 55.017 110.182 55.4332C109.924 55.7943 109.78 56.1754 109.753 56.5791L109.732 56.87H112.501V56.7346H112.498ZM113.367 57.0455H109.73V57.1909L109.74 57.3062C109.796 57.9506 109.985 58.4822 110.306 58.8984C110.677 59.3849 111.17 59.6281 111.783 59.6281C112.183 59.6281 112.637 59.4801 113.147 59.1818L113.19 59.2745C112.695 59.593 112.14 59.7534 111.523 59.7534C110.733 59.7534 110.091 59.5127 109.593 59.0288C109.098 58.5474 108.848 57.913 108.848 57.1282C108.848 56.559 108.995 56.0626 109.288 55.6388C109.604 55.18 110.028 54.8941 110.566 54.7738C110.819 54.7186 111.066 54.691 111.311 54.691C111.975 54.691 112.488 54.9067 112.852 55.3354C113.195 55.7391 113.365 56.2757 113.365 56.9477V57.0455H113.367Z" fill="black"/>
<path d="M118.937 54.8189C118.434 54.8189 118.027 55.027 117.719 55.4407C117.439 55.8143 117.3 56.2606 117.3 56.7822C117.3 57.4542 117.454 58.0634 117.762 58.6101C118.139 59.2745 118.644 59.608 119.273 59.608C119.826 59.608 120.238 59.3623 120.51 58.8708C120.728 58.4822 120.836 57.9907 120.836 57.3965C120.836 56.4963 120.563 55.7893 120.018 55.2777C119.695 54.9718 119.336 54.8189 118.937 54.8189ZM119.083 59.7509C118.336 59.7509 117.717 59.5127 117.227 59.0388C116.737 58.5624 116.492 57.9556 116.492 57.2109C116.492 56.4412 116.737 55.8294 117.227 55.378C117.717 54.9267 118.353 54.701 119.136 54.701C119.871 54.701 120.48 54.9242 120.965 55.368C121.45 55.8118 121.695 56.3985 121.695 57.1282C121.695 57.8854 121.45 58.5098 120.96 59.0062C120.473 59.5027 119.846 59.7509 119.083 59.7509Z" fill="black"/>
<path d="M127.669 54.9443C127.209 54.9443 126.767 55.1624 126.343 55.6012V59.2645C126.623 59.4876 126.974 59.598 127.401 59.598C128.03 59.598 128.515 59.3146 128.858 58.7455C129.151 58.2665 129.298 57.6974 129.298 57.0379C129.298 56.4688 129.172 55.9949 128.922 55.6112C128.629 55.1649 128.212 54.9443 127.669 54.9443ZM127.575 59.7208C127.186 59.7208 126.772 59.6205 126.343 59.4199V61.0297C126.343 61.3356 126.386 61.5487 126.469 61.6666C126.567 61.827 126.762 61.9073 127.055 61.9073V62L125.923 61.9574C125.868 61.9574 125.653 61.9649 125.284 61.9775L124.792 61.9975V61.8947C125.072 61.8947 125.264 61.822 125.368 61.6766C125.443 61.5663 125.489 61.3607 125.504 61.0623V60.8341V56.035C125.504 55.6187 125.39 55.4106 125.161 55.4106C125.102 55.4106 124.971 55.4282 124.769 55.4633V55.348C125.269 55.1599 125.792 54.9242 126.343 54.6409V55.4833C126.775 54.9493 127.315 54.681 127.969 54.681C128.651 54.681 129.182 54.9016 129.566 55.3429C129.95 55.7842 130.139 56.3484 130.139 57.0354C130.139 57.7926 129.902 58.4245 129.427 58.931C128.944 59.4576 128.328 59.7208 127.575 59.7208Z" fill="black"/>
<path d="M133.956 58.422V52.6224C133.956 52.2137 133.827 52.0081 133.567 52.0081C133.506 52.0081 133.39 52.0256 133.218 52.0607L133.178 51.9354C133.698 51.7473 134.236 51.5191 134.792 51.2484V58.7103C134.792 59.2243 135.029 59.4801 135.504 59.4801V59.5954L134.236 59.5653C133.943 59.5578 133.607 59.5678 133.231 59.5954L133.241 59.4701C133.688 59.4701 133.925 59.2444 133.953 58.7956V58.422H133.956Z" fill="black"/>
<path d="M142.238 56.7346C142.238 56.2431 142.145 55.8194 141.955 55.4658C141.718 55.0295 141.372 54.8089 140.917 54.8089C140.541 54.8089 140.207 55.017 139.922 55.4332C139.664 55.7943 139.52 56.1754 139.493 56.5791L139.472 56.87H142.241V56.7346H142.238ZM143.11 57.0455H139.472V57.1909L139.482 57.3062C139.538 57.9506 139.727 58.4822 140.048 58.8984C140.42 59.3849 140.912 59.6281 141.526 59.6281C141.925 59.6281 142.38 59.4801 142.89 59.1818L142.933 59.2745C142.438 59.593 141.882 59.7534 141.266 59.7534C140.475 59.7534 139.833 59.5127 139.336 59.0288C138.841 58.5474 138.591 57.913 138.591 57.1282C138.591 56.559 138.737 56.0626 139.03 55.6388C139.346 55.18 139.77 54.8941 140.308 54.7738C140.561 54.7186 140.808 54.691 141.053 54.691C141.718 54.691 142.231 54.9067 142.594 55.3354C142.938 55.7391 143.107 56.2757 143.107 56.9477V57.0455H143.11Z" fill="black"/>
<path fill-rule="evenodd" clip-rule="evenodd" d="M77.1534 1.99841C71.3641 6.0378 69.4343 13.8533 61.9375 10.4533C69.9799 9.91421 70.3411 4.83927 75.6051 2.1338C71.2277 0.351056 64.2714 1.55209 62.3391 7.22629C63.9758 5.85225 66.5548 3.08159 73.2863 2.84089C66.9665 4.2375 63.1852 7.4996 60.9296 10.2151C59.5707 1.13085 68.2598 -2.66031 77.1534 1.99841Z" fill="#75B051"/>
<path d="M10.0455 5.70925C9.26245 5.70925 8.27988 5.81707 7.11544 6.03521V19.0259C8.39607 19.4597 9.65144 19.6754 10.879 19.6754C14.9962 19.6754 17.0548 17.5917 17.0548 13.4245C17.0548 11.0976 16.4815 9.25719 15.3448 7.90321C14.1223 6.44141 12.3567 5.70925 10.0455 5.70925ZM23.8823 34.9378C20.4193 34.9378 17.3933 32.4605 14.8043 27.5084L12.3516 22.8422C11.95 22.0574 11.5736 21.5308 11.2276 21.26C10.8462 20.8538 10.288 20.583 9.5302 20.4476L7.11797 20.0414V29.582C7.11797 31.287 7.27457 32.3978 7.59536 32.9118C8.05255 33.6415 9.01997 34.0075 10.5128 34.0075V34.3736L5.27912 34.2508C4.95075 34.2508 3.94292 34.2708 2.2531 34.3109L0 34.3711V33.9248C1.50038 33.9248 2.48043 33.5462 2.94519 32.789C3.29882 32.2198 3.47563 31.1316 3.47563 29.5344V9.7361C3.47563 8.46486 3.35186 7.54967 3.10685 7.01058C2.72544 6.14554 1.94746 5.71176 0.775449 5.71176H0V5.18521H5.02906C5.65548 5.18521 6.59764 5.15261 7.85048 5.08491C9.10585 5.01722 10.0455 4.98462 10.6719 4.98462C17.3782 4.98462 20.7325 7.47445 20.7325 12.4466C20.7325 14.3146 20.2274 15.8842 19.2195 17.1554C18.2117 18.4217 16.7921 19.2591 14.9659 19.6653L14.0667 19.8684C15.0821 21.0319 16.0899 22.4811 17.0801 24.2112L19.8055 29.0479C21.7884 32.5457 23.7939 34.2909 25.8045 34.2909C25.9965 34.2909 26.1455 34.2909 26.2541 34.2909V34.6695C25.5191 34.85 24.7285 34.9378 23.8823 34.9378Z" fill="black"/>
<path d="M30.0177 34.2884C29.8005 34.2884 28.967 34.2884 27.5222 34.2884L25.6 34.3687V33.8421C26.5825 33.8421 27.2898 33.639 27.7268 33.2328C28.0551 32.9344 28.2572 32.2173 28.3406 31.0815L28.381 30.4722V20.568C28.381 18.9432 27.9187 18.1334 26.9917 18.1334C26.7467 18.1334 26.2138 18.2011 25.3979 18.3365L25.4383 17.85C27.8909 16.9022 29.9369 15.9971 31.5737 15.1295V29.2436C31.5737 30.7655 31.6419 31.7535 31.7783 32.2148C32.0789 33.2504 32.7735 33.8045 33.8647 33.8872L34.4785 33.9273L34.4381 34.3737L30.0177 34.2884ZM30.0177 11.3534C29.3358 11.3534 28.7775 11.1102 28.3406 10.6238C27.9036 10.1373 27.6863 9.55561 27.6863 8.87862C27.6863 8.25679 27.9187 7.70015 28.381 7.21372C28.8457 6.72729 29.3888 6.48407 30.0177 6.48407C30.672 6.48407 31.2251 6.71976 31.6747 7.19366C32.1243 7.66755 32.3492 8.22921 32.3492 8.87862C32.3492 9.55561 32.1319 10.1373 31.6949 10.6238C31.258 11.1077 30.6997 11.3534 30.0177 11.3534Z" fill="black"/>
<path d="M36.6835 34.4113L49.4848 16.2654H43.7182C42.0283 16.2654 40.8563 16.4409 40.2021 16.792C39.2473 17.306 38.6335 18.334 38.3607 19.876C38.3052 20.202 38.2925 20.4577 38.3203 20.6483H37.9919V15.6962H53.4302L40.629 33.8421H46.5118C51.0584 33.8421 53.3267 32.3803 53.3267 29.4567H53.6121V34.4088H36.6835V34.4113Z" fill="black"/>
<path d="M114.241 34.2484C113.615 34.2208 112.748 34.2358 111.637 34.2885C110.409 34.3687 109.558 34.4113 109.068 34.4113V33.965C110.513 33.965 111.468 33.614 111.93 32.9094C112.284 32.3678 112.463 31.3122 112.463 29.7426V20.202H95.2868V30.5801C95.2868 31.8312 95.5394 32.7113 96.0446 33.2253C96.5498 33.7469 97.4288 34.0026 98.6816 34.0026V34.4088L93.1398 34.2458L88.2522 34.4088V34.0026C89.7778 34.0026 90.773 33.6366 91.2378 32.9069C91.5914 32.3377 91.7708 31.2219 91.7708 29.5721V10.0597C91.7708 8.4098 91.5939 7.30655 91.2378 6.76496C90.7756 6.03531 89.7804 5.66923 88.2522 5.66923V5.1828L93.4454 5.34578C93.7738 5.34578 94.7665 5.3182 96.4512 5.26554L98.6791 5.18531V5.67174C97.2267 5.67174 96.2669 6.02277 95.8097 6.72735C95.4611 7.26894 95.2843 8.33708 95.2843 9.93429V19.4322H112.46V10.0546C112.46 8.3772 112.304 7.28148 111.983 6.76746C111.526 6.03782 110.558 5.67174 109.066 5.67174V5.18531C109.604 5.18531 110.606 5.21289 112.071 5.26554L114.259 5.34578C114.504 5.34578 115.507 5.3182 117.265 5.26554L119.492 5.18531V5.67174C118.197 5.67174 117.285 5.92248 116.759 6.42395C116.234 6.92543 115.976 7.81053 115.976 9.08178V29.542C115.976 31.247 116.141 32.3578 116.466 32.8718C116.929 33.6014 117.924 33.9675 119.452 33.9675L119.492 34.4138C119.028 34.4138 118.04 34.3863 116.519 34.3336L114.241 34.2484Z" fill="black"/>
<path d="M136.795 23.2057C136.795 21.2851 136.426 19.6327 135.691 18.2537C134.764 16.5486 133.415 15.6961 131.642 15.6961C130.169 15.6961 128.874 16.5085 127.757 18.1308C126.749 19.5374 126.189 21.0268 126.08 22.5964L125.999 23.7323H136.795V23.2057ZM140.19 24.4243H125.999V24.9935L126.04 25.4398C126.257 27.9572 126.994 30.0283 128.247 31.6506C129.692 33.5462 131.614 34.4915 134.014 34.4915C135.567 34.4915 137.34 33.9097 139.331 32.7463L139.495 33.1124C137.56 34.3561 135.393 34.9804 132.993 34.9804C129.912 34.9804 127.404 34.0401 125.469 32.1596C123.534 30.2791 122.564 27.8093 122.564 24.7503C122.564 22.5313 123.137 20.5956 124.282 18.9457C125.509 17.1604 127.171 16.0371 129.27 15.5758C130.253 15.3601 131.22 15.2498 132.175 15.2498C134.764 15.2498 136.77 16.0898 138.187 17.7672C139.523 19.3368 140.19 21.4355 140.19 24.0608V24.4243Z" fill="black"/>
<path d="M153.822 17.2382C152.794 17.2382 151.799 17.6519 150.836 18.4768C149.876 19.2943 149.391 20.222 149.391 21.25V31.0463C149.391 32.9344 150.331 33.8822 152.213 33.8822V34.4087C151.859 34.4087 151.026 34.3812 149.717 34.3285H147.755C147.563 34.3285 146.732 34.3285 145.259 34.3285L143.337 34.4087V33.8822C145.219 33.8822 146.158 32.7463 146.158 30.4721V20.4878C146.158 18.863 145.701 18.0531 144.789 18.0531C144.388 18.0531 143.862 18.1333 143.216 18.2963L143.135 17.7698C145.411 16.9574 147.497 16.0522 149.391 15.0493V20.4075L150.081 18.9056C151.574 16.4434 153.284 15.2122 155.206 15.2122C155.833 15.2122 156.413 15.3075 156.957 15.4956V19.3118C156.365 17.9302 155.315 17.2382 153.822 17.2382Z" fill="black"/>
<path d="M169.227 16.3456C167.265 16.3456 165.547 17.1856 164.075 18.8706V33.3156C165.302 34.1004 166.638 34.4941 168.083 34.4941C170.536 34.4941 172.445 33.5062 173.809 31.5228C175.037 29.7852 175.651 27.6464 175.651 25.0939C175.651 22.7044 175.188 20.7361 174.261 19.194C173.137 17.2934 171.463 16.3456 169.227 16.3456ZM168.735 34.7774C167.808 34.7774 166.825 34.6821 165.79 34.4941L160.925 33.5989V7.52969C160.925 5.6968 160.407 4.77659 159.371 4.77659C159.126 4.77659 158.662 4.84429 157.982 4.97969L157.858 4.49326C160.013 3.76361 162.084 2.86847 164.075 1.81287V18.3365C165.274 17.2934 166.242 16.5763 166.979 16.1977C168.015 15.6486 169.174 15.3728 170.455 15.3728C173.072 15.3728 175.151 16.1852 176.691 17.8074C178.232 19.4322 179.003 21.556 179.003 24.1812C179.003 27.3756 178.088 29.9382 176.262 31.8739C174.433 33.8095 171.925 34.7774 168.735 34.7774Z" fill="black"/>
<path d="M67.5601 23.7749C66.6609 23.9905 65.7616 24.2764 64.8599 24.6274C62.9781 25.3846 61.753 25.9814 61.1797 26.4127C59.9521 27.3053 59.3383 28.4838 59.3383 29.9456C59.3383 32.4906 60.4699 33.7618 62.7331 33.7618C64.2587 33.7618 65.8677 32.8968 67.5601 31.1642V23.7749ZM68.4593 35.1409C68.1057 34.6269 67.8177 33.8947 67.6005 32.9494C67.5449 32.7338 67.4641 32.3552 67.3555 31.8136C65.2565 33.8972 63.0615 34.9403 60.7705 34.9403C58.5628 34.9403 57.0751 33.9799 56.3123 32.0518C56.0395 31.3748 55.9031 30.7254 55.9031 30.096C55.9031 28.7696 56.7063 27.6187 58.3153 26.6383C59.1867 26.1243 60.6315 25.5426 62.6497 24.8932L67.5575 23.3436V20.1267C67.5575 18.8805 67.2974 17.8675 66.7796 17.0752C66.1809 16.155 65.2792 15.6961 64.0794 15.6961C63.208 15.6961 62.3896 15.9393 61.6267 16.4333C60.7553 16.9749 60.3183 17.6719 60.3183 18.5169C60.3183 19.0309 60.4421 19.6879 60.6871 20.4802L57.7419 21.4205C57.6611 21.2048 57.5929 20.8663 57.5373 20.405C57.5373 18.9156 58.5729 17.6318 60.6442 16.5486C62.4426 15.6008 64.2032 15.127 65.9208 15.127C67.3378 15.127 68.477 15.5457 69.3358 16.3857C70.1946 17.2256 70.624 18.3489 70.624 19.7556V30.3518C70.624 31.8662 71.1822 32.626 72.3012 32.626C72.6295 32.626 73.0918 32.4906 73.6904 32.2198L73.8142 32.5457L68.4593 35.1409Z" fill="black"/>
<path d="M152.248 44.1149H26.7518V45.0025H152.248V44.1149Z" fill="#75B051"/>
</svg>
